<?xml version="1.0" encoding="utf-8"?>
<!-- Generator: Adobe Illustrator 23.0.3, SVG Export Plug-In . SVG Version: 6.00 Build 0)  -->
<svg version="1.1" id="Ebene_1" xmlns="http://www.w3.org/2000/svg" xmlns:xlink="http://www.w3.org/1999/xlink" x="0px" y="0px"
	 viewBox="0 0 1134 228.2" style="enable-background:new 0 0 1134 228.2;" xml:space="preserve">
<style type="text/css">
	.st0{fill:url(#SVGID_1_);}
	.st1{fill:#FFFFFF;}
	.st2{fill:#E54D42;}
</style>
<g>
	<g>
		<linearGradient id="SVGID_1_" gradientUnits="userSpaceOnUse" x1="119.0804" y1="211.9533" x2="119.0804" y2="16.2732">
			<stop  offset="0" style="stop-color:#E14760"/>
			<stop  offset="1" style="stop-color:#FA8816"/>
		</linearGradient>
		<path class="st0" d="M227.9,84.9l-51.7-66c-3-3.6-8.6-3.4-11.3,0.4l-21.9,31.3c-7-3.9-15-6-23.6-6c-9.3,0-17.8,2.3-25.1,6.3
			L73.2,20.2c-2.7-3.9-8.3-4.1-11.3-0.4l-51.7,66c-2.1,2.6,1.4,6.1,4,3.8L58.7,50c1.3-1.2,3.4-1,4.5,0.3l5.5,17.3
			C43.4,73.9,24.6,96.7,24.7,124c0.1,30.5,23.7,55.4,53.7,57.5c0.8,11.1,7.2,23.1,27.5,30.3c1.6,0.6,3-1.3,2-2.7
			c-2-2.7-4.1-6.3-4.8-10.4c4.8,1.7,10,2.7,15.4,2.7c4.8,0,9.4-0.8,13.8-2.2c-0.8,3.9-2.8,7.4-4.7,10c-1,1.4,0.3,3.3,2,2.7
			c20.5-7.3,27.4-19.3,28.8-30.4c31.3-0.9,56.3-26.6,56.2-58c-0.1-27.5-19.4-50.5-45.1-56.3l5.6-17.7c1.2-1.4,3.2-1.5,4.5-0.3
			l44.5,39.6C226.5,91,230,87.5,227.9,84.9z"/>
		
			<ellipse transform="matrix(0.8521 -0.5233 0.5233 0.8521 -57.6885 56.796)" class="st1" cx="71.7" cy="130.5" rx="30.5" ry="41.4"/>
		<g>
			<path class="st2" d="M59.6,148.8c0,0-0.6-1.8-0.6-5.2c0-3.4,0.6-5.1,0.6-5.1L75,132l-15.5-6.7c0,0-0.6-1.8-0.6-5.1
				c0-3.5,0.6-5.1,0.6-5.1l26.8,11.5c0,0,0.6,1.9,0.6,5.3c0,3.3-0.6,5.5-0.6,5.5L59.6,148.8z"/>
		</g>
		
			<ellipse transform="matrix(0.5233 -0.8521 0.8521 0.5233 -31.3454 204.9231)" class="st1" cx="167.5" cy="130.5" rx="41.7" ry="31"/>
		<g>
			<path class="st2" d="M148.6,137.1c0,0-0.6-1.3-0.6-4.8c0-3.5,0.6-4.8,0.6-4.8h35.7c0,0,0.6,1.3,0.6,4.8c0,3.5-0.6,4.8-0.6,4.8
				H148.6z"/>
		</g>
	</g>
	<g>
		<path class="st1" d="M336.7,116.7c3.8,0,4.5,1.7,4.2,4.4l-3.4,28c-1.7,13.5-10.8,26.8-41.1,26.8c-26.6,0-36.2-11.4-36.2-23.8
			c0-1.1,0.2-2.8,0.3-4.2l6.6-54.2c1.6-13.5,10.8-26.8,41-26.8c26.6,0,36.2,11.4,36.2,24c0,0.9-0.2,2.5-0.3,4.2l-0.5,4.2
			c-0.3,3.3-1.7,4.7-5,4.7h-16.1c-3.3,0-4.4-1.9-3.9-4.7l0.2-1.1c0.2-1.1,0.2-1.9,0.2-2.5c0-5.2-4.5-7.7-11.8-7.7
			c-7.5,0-13.6,3-14.6,10.2l-5.6,45.1c-0.2,1.1-0.3,2.4-0.3,3.1c0,5.8,4.4,8.3,11.9,8.3c8.5,0,13.6-3,14.4-10.2l0.8-6.7h-12.9
			c-3.3,0-4.5-1.4-4.1-4.5l1.6-12.2c0.3-3.3,1.9-4.4,5.2-4.4H336.7z"/>
		<path class="st1" d="M375,170c-0.5,3.3-1.7,4.7-5,4.7h-16.1c-3.3,0-4.4-1.4-3.9-4.7l8.5-68.9c0.3-3.3,1.7-4.7,5-4.7h16.1
			c3.3,0,4.4,1.4,3.9,4.7L375,170z M385.6,82.9c-0.5,3.3-1.7,4.5-5,4.5h-16.1c-3.3,0-4.4-1.3-3.9-4.5l1.6-13
			c0.5-3.3,1.9-4.7,5.2-4.7h16.1c3.3,0,4.2,1.4,3.8,4.7L385.6,82.9z"/>
		<path class="st1" d="M436.7,167.3c-4.9,3.4-11.7,8.6-24.4,8.6c-13.6,0-21.3-7.5-21.3-19.9c0-1.3,0.2-2.7,0.3-4.2l4.1-32.6
			c1.9-14.9,8.8-24.1,25.4-24.1c11.3,0,19.1,4.7,23.2,8.1l0.6-2.2c0.9-3.1,1.7-4.7,5-4.7h15.8c2.4,0,4.4,1.1,3.9,4.7l-8.5,68.9
			c-0.5,3.3-1.9,4.7-5.2,4.7h-15c-2.7,0-3.9-1.3-3.9-4.7V167.3z M416.8,147.9c-0.2,1.3-0.2,1.9-0.2,2.2c0,2.4,0.8,4.4,5.5,4.4
			c6,0,12.7-4.1,16.3-6.4l3.1-25.1c-3-2.4-8.8-6.4-14.7-6.4c-5.6,0-6.4,3.4-6.9,6.6L416.8,147.9z"/>
		<path class="st1" d="M505,96.4c3.3,0,4.1,1.2,4.1,4.5v2.7c4.7-3.6,12.5-8.5,24.4-8.5c12.4,0,21.3,7.8,21.3,19.1
			c0,0.5,0,1.1-0.3,4.1l-6.3,51.7c-0.5,3.3-1.9,4.7-5.2,4.7h-15.8c-2.7,0-4.5-0.9-4.1-4.7l5.5-45.4c0.3-2.8,0.3-3.3,0.3-3.6
			c0-3.1-1.3-4.4-5.3-4.4c-6.1,0-13,3.9-16.3,6.3l-5.8,47.2c-0.5,3.3-1.7,4.7-5,4.7h-16.1c-2.8,0-4.4-1.1-3.9-4.7l8.5-69.1
			c0.3-3.3,1.7-4.5,5-4.5H505z"/>
		<path class="st1" d="M596.3,146.2c-0.2,1.4-0.2,2-0.2,2.7c0,3.9,2.5,5.5,9.1,5.5h3.8c3.4,0,4.5,1.9,4.2,4.7l-1.4,11.1
			c-0.5,3.3-1.9,4.5-5.2,4.5h-7.8c-20.5,0-28.4-6.4-28.4-19.4c0-1.6,0.2-3.3,0.3-5l4.1-34H568c-3.4,0-4.2-1.6-3.9-4.5l1.1-9.6
			c0.3-3.3,1.9-4.1,5.2-4.5l6.9-0.9h0.2l1.7-14.3c0.3-3.3,1.9-4.7,5.2-4.7h16.1c3.3,0,4.1,1.7,3.8,4.7l-1.7,14.3h12.7
			c3.4,0,4.4,1.7,4.1,4.4l-1.2,10.7c-0.3,3.3-2,4.5-5.3,4.5h-12.7L596.3,146.2z"/>
		<path class="st1" d="M708.6,97.2v-0.9c0-6.4-4.4-8.9-11.3-8.9c-7.2,0-12.4,2.7-13.3,9.9l-0.2,1.6v0.9c0,4.1,2.7,5.2,4.2,5.8
			l25.2,8.9c10.2,3.6,16.8,11.4,16.8,21.1c0,1.1-0.2,2.2-0.3,3.9l-1.1,9.7c-1.6,13.5-11.6,26.8-41.4,26.8
			c-26.8,0-37.1-11.6-37.1-24.1c0-0.8,0-1.7,0.3-3.9l1.1-9.2c0.3-3.3,1.9-4.7,5.2-4.7h16.3c3.3,0,4.2,1.7,3.8,4.7l-0.8,5.8
			c-0.2,1.1-0.2,1.9-0.2,2.8c0,6.1,5.5,8.3,13,8.3c7.7,0,13.6-2.7,14.7-9.9l0.3-2c0.2-1.1,0.2-1.7,0.2-1.9c0-5-7.4-7.8-12.2-9.7
			l-21.5-8.5c-6.3-2.3-12.2-9.2-12.2-18.2c0-0.9,0.2-2.3,0.3-3.9l0.9-7.8c1.6-13.5,10.2-26.8,39.5-26.8c26.3,0,35.6,11.6,35.6,23.7
			c0,0.6,0,1.3-0.2,3.1l-0.6,5.8c-0.3,3.3-1.9,4.7-5.2,4.7h-16.3c-3,0-4.1-1.1-3.8-4.7L708.6,97.2z"/>
		<path class="st1" d="M850.7,96.4c3.3,0,5.5,1.4,4.1,4.7l-28.5,69.4c-1.3,3.1-1.9,4.2-5.2,4.2h-19.3c-3.3,0-3.9-1.4-4.2-4.2
			l-2.7-29.9c-0.3-3.1-0.5-8.5-0.5-8.6c-0.2,0.2-1.6,5-3,8.6l-12.7,29.9c-1.3,2.8-1.9,4.2-5.2,4.2h-18.8c-3.3,0-3.8-1.3-4.2-4.2
			l-10.2-69.4c-0.5-3.3,1.7-4.7,5-4.7h15c3.3,0,4.4,1.9,4.7,4.7l4.7,34.8c0.5,3.8,0.3,8,0.3,8.1c0-0.3,1.6-5,2.8-8.1l14.1-34.8
			c1.1-2.8,2.4-4.7,5.6-4.7h15.2c3.3,0,4.4,1.9,4.7,4.7l3.1,34.8c0.3,3.4,0.5,7.8,0.5,8.1c0-0.3,1.4-5,2.7-8.1l13.2-34.8
			c1.1-2.8,2.4-4.7,5.6-4.7H850.7z"/>
		<path class="st1" d="M901.5,167.3c-4.9,3.4-11.8,8.6-24.4,8.6c-13.6,0-21.3-7.5-21.3-19.9c0-1.3,0.2-2.7,0.3-4.2l4.1-32.6
			c1.9-14.9,8.8-24.1,25.4-24.1c11.3,0,19.1,4.7,23.2,8.1l0.6-2.2c0.9-3.1,1.7-4.7,5-4.7h15.8c2.3,0,4.4,1.1,3.9,4.7l-8.5,68.9
			c-0.5,3.3-1.9,4.7-5.2,4.7h-15c-2.7,0-3.9-1.3-3.9-4.7V167.3z M881.6,147.9c-0.2,1.3-0.2,1.9-0.2,2.2c0,2.4,0.8,4.4,5.5,4.4
			c6,0,12.7-4.1,16.3-6.4l3.1-25.1c-3-2.4-8.8-6.4-14.7-6.4c-5.6,0-6.4,3.4-6.9,6.6L881.6,147.9z"/>
		<path class="st1" d="M1000.8,99.7l-1.6,12.2c-0.5,3.3-1.9,4.2-5.3,4.7c-10.7,1.3-18.5,5.6-22.1,8.6l-5.5,44.8
			c-0.5,3.3-1.7,4.7-5,4.7h-16.1c-3.3,0-4.4-1.4-3.9-4.7l8.5-69.1c0.5-3.3,1.7-4.5,5-4.5h15c3.3,0,4.1,1.2,4.1,4.5l-0.2,4.4
			c4.4-4.4,11-10.2,22.9-10.2C999.9,95.1,1001.3,96.4,1000.8,99.7z"/>
		<path class="st1" d="M1029.8,96.4c3.3,0,3.9,1.2,3.9,4.5v2.7c4.5-3.6,10.8-8.5,23.7-8.5c8.8,0,16.8,4.1,19.6,10.3
			c4.2-3.1,10.7-10.3,26.2-10.3c12.2,0,21.3,7.7,21.3,18.6c0,0.9,0,1.6-0.2,3.1l-6.4,53.1c-0.5,3.3-1.9,4.7-5.2,4.7h-15.8
			c-2.7,0-4.4-1.6-4.1-4.7l5.5-45.4c0.3-2.8,0.3-3.3,0.3-3.6c0-3.1-1.7-4.4-5.3-4.4c-6.1,0-12.4,3.8-15.5,6.3v0.3l-5.6,46.8
			c-0.5,3.3-1.9,4.7-5.2,4.7h-15.8c-2.7,0-4.4-1.6-4.1-4.7l5.6-46.7c0.2-1.6,0.2-2,0.2-2.4c0-3.1-1.7-4.4-5.3-4.4
			c-6.1,0-12.2,3.8-15.3,6.3l-5.8,47.2c-0.5,3.3-1.7,4.7-5,4.7h-16.1c-2.8,0-4.2-1.6-3.9-4.7l8.5-69.1c0.5-3.3,1.7-4.5,5-4.5H1029.8
			z"/>
	</g>
</g>
</svg>
